# xmcd CD database file
#
# Track frame offsets:
#	150
#	10976
#	18321
#	39846
#	57686
#	70156
#	83136
#	99538
#	109628
#	123041
#	136531
#	149251
#
# Disc length: 2236 seconds
#
# Revision: 2
# Processed by: cddbd v1.5.2PL0 Copyright (c) Steve Scherf et al.
# Submitted via: CDex 1.60beta1
#
DISCID=9308ba0c
DTITLE=Cop - Bic
DYEAR=2000
DGENRE=Bluegrass
TTITLE0=Mavej vsem
TTITLE1=Reka
TTITLE2=Bic
TTITLE3=Tajny prani
TTITLE4=Co dal
TTITLE5=Nad ranem
TTITLE6=Kdo
TTITLE7=Mary Jane
TTITLE8=Jednou
TTITLE9=Irish
TTITLE10=Derniera
TTITLE11=Klic ke vzpominkam
EXTD=YEAR: 2000
EXTT0=
EXTT1=
EXTT2=
EXTT3=
EXTT4=
EXTT5=
EXTT6=
EXTT7=
EXTT8=
EXTT9=
EXTT10=
EXTT11=
PLAYORDER=
